<svg width="200" height="175" fill="none" xmlns="http://www.w3.org/2000/svg">
    <g clip-path="url(#a)">
        <g clip-path="url(#b)">
            <path d="M67.083 101.499a26.27 26.27 0 0 0 1.08 23.413 26.124 26.124 0 0 0 8.107 8.869 25.964 25.964 0 0 0 11.204 4.283c2.418.321 4.86.564 7.326.729a117.575 117.575 0 0 0 54.127-8.963 118.081 118.081 0 0 0 44.249-32.572c11.214-13.248 6.449-33.643-9.365-40.726a25.838 25.838 0 0 0-16.288-1.67 25.929 25.929 0 0 0-14.04 8.461 66.03 66.03 0 0 1-24.751 18.275 65.742 65.742 0 0 1-30.305 5.043 67.587 67.587 0 0 1-4.302-.445 25.818 25.818 0 0 0-16.053 3.136 25.994 25.994 0 0 0-10.989 12.167z" fill="#000"/>
            <path d="M110.933 116.612a.718.718 0 0 0-.247-.532.786.786 0 0 0-.544-.204l-5.803.219a.764.764 0 0 0-.725.794l.159 4.182c.109.854.025 1.72-.246 2.536-.167.321-.515.729-1.727.729-1.603.066-2.176-.59-2.241-2.791l-.653-17.19c-.08-2.098.355-2.754 1.85-2.812 1.313-.051 1.704.298 1.9.561.361.732.529 1.545.486 2.361l.153 4.051a.728.728 0 0 0 .79.729l5.803-.226a.77.77 0 0 0 .53-.24.785.785 0 0 0 .203-.554l-.181-4.912c-.08-2.018-.153-2.769-.726-3.913a6.433 6.433 0 0 0-2.372-2.616c-1.654-1.02-3.706-1.457-6.456-1.34-3.996.153-5.803 1.246-7.014 2.302-1.603 1.4-2.321 3.134-2.336 5.589 0 .569-.05 1.173 0 1.749l.66 17.489a9.357 9.357 0 0 0 .646 3.643c1.008 2.223 3.068 3.585 6.093 4.052.997.164 2.007.237 3.018.218h.232c2.176-.073 7.254-.729 8.639-5.217.34-1.334.457-2.716.348-4.088l-.239-4.569zM135.77 119.119a.738.738 0 0 0-.341-.481.713.713 0 0 0-.573-.095l-7.689 1.778-5.934-25.817a.762.762 0 0 0-.914-.576l-5.745 1.326a.77.77 0 0 0-.566.925l7.189 31.334a.776.776 0 0 0 .725.598h.189l14.174-3.287a.715.715 0 0 0 .485-.333.734.734 0 0 0 .08-.585l-1.08-4.787zM145.982 83.69a.77.77 0 0 0-1.03-.335l-5.252 2.703a.77.77 0 0 0-.333 1.027l10.772 21.256.152.306c.537 1.021.885 1.8.501 2.5a2.18 2.18 0 0 1-.973.896 1.815 1.815 0 0 1-1.958 0 5.697 5.697 0 0 1-1.226-1.851L135.841 88.9a.716.716 0 0 0-.437-.396.72.72 0 0 0-.585.06l-5.274 2.675a.726.726 0 0 0-.377.444.726.726 0 0 0 .043.583l11.179 22.072a10.395 10.395 0 0 0 2.292 3.112 7.145 7.145 0 0 0 2.459 1.457 7.398 7.398 0 0 0 2.408.416 10.967 10.967 0 0 0 5.078-1.363l.101-.051c4.055-2.026 5.303-4.554 5.629-6.325a8.356 8.356 0 0 0-1.102-5.735l-11.273-22.16zM165.09 83.93c-.348.36-.721.694-1.117.999l-1.059.86-4.063-5.152 1.248-.991c1.117-.89 1.603-1.1 2.278-.605.327.258.617.56.863.896l1.349 1.713c1.175 1.457.82 1.916.515 2.28h-.014zm6.978 13.445-5.332-6.755 1.393-1.108c1.074-.853 1.734-1.217 2.408-.787.283.16.443.357 1.016 1.086l2.343 2.958c1.371 1.742.957 2.186.537 2.623a7.361 7.361 0 0 1-1.009.904l-1.356 1.079zm9.074-7.185v-.037c-.137-.167-.261-.35-.399-.532-.137-.182-.304-.43-.471-.634l-3.032-3.84c-.871-1.115-1.85-2.375-3.627-2.82a4.079 4.079 0 0 0-1.756 0 4.472 4.472 0 0 0-.348-3.476 13.812 13.812 0 0 0-1.349-2.025l-1.777-2.252c-1.161-1.457-2.604-3.294-5.382-3.272-2.227 0-3.758 1.21-5.238 2.39l-7.906 6.296a.838.838 0 0 0-.283.517.732.732 0 0 0 .167.562l19.882 25.176a.727.727 0 0 0 .508.284h.036a.773.773 0 0 0 .53-.16l7.914-6.311a11.628 11.628 0 0 0 3.358-3.578c.689-1.355 1.11-3.548-.812-6.288" fill="#fff"/>
            <path d="M131.032 35.545a26.106 26.106 0 0 0-2.283-23.115 25.931 25.931 0 0 0-8.47-8.367A25.793 25.793 0 0 0 108.98.379c-2.56-.204-5.15-.328-7.754-.364a117.588 117.588 0 0 0-53.584 12.014A118.152 118.152 0 0 0 5.266 47.095 26.072 26.072 0 0 0 .45 58.036a26.129 26.129 0 0 0 .568 11.95 26.046 26.046 0 0 0 5.832 10.43 25.89 25.89 0 0 0 9.862 6.706 26.096 26.096 0 0 0 16.498.765 26.203 26.203 0 0 0 13.678-9.298 66.074 66.074 0 0 1 23.68-19.54 65.76 65.76 0 0 1 29.911-6.693c1.451 0 2.872.066 4.265.197a25.776 25.776 0 0 0 15.851-3.972 25.963 25.963 0 0 0 10.321-12.722l.116-.314z" fill="#FF5A9B"/>
            <path d="M35.18 50.454a.725.725 0 0 0-1.08.051l-5.63 6.333a.73.73 0 0 0 .051 1.07l3.533 3.273a.767.767 0 0 0 1.102-.073l1.125-1.356 3.198 2.966c.624.576 1.22 1.122 1.27 1.858a2.031 2.031 0 0 1-.726 1.574l-.065.073c-.863.94-1.45.875-1.937.729-.41-.19-.784-.45-1.102-.773l-.058-.058-12.426-11.506c-1.509-1.406-1.74-1.99-1.654-2.66.1-.492.354-.939.726-1.275a2.466 2.466 0 0 1 1.167-.78c.726-.196 1.132.168 1.886.875l2.438 2.259a.788.788 0 0 0 .544.204.825.825 0 0 0 .536-.248l3.99-4.372a.73.73 0 0 0 .203-.547.781.781 0 0 0-.246-.531l-3.475-3.214a6.693 6.693 0 0 0-3.431-1.836c-3.41-.554-6.528 2.186-8.044 3.891-3.294 3.585-4.222 7.09-2.692 10.121a13.264 13.264 0 0 0 2.902 3.55l13.39 12.387a8.027 8.027 0 0 0 2.619 1.727 6.12 6.12 0 0 0 1.799.379c1.581.102 3.866-.328 6.13-2.791a8.03 8.03 0 0 0 2.212-4.664v-.05l.08.072a.725.725 0 0 0 1.08-.044l3.402-3.716a.729.729 0 0 0-.043-1.078L35.18 50.454zM50.044 37.01c-.036.437-.363.824-1.088 1.304l-1.937 1.276-3.968-6.056 2.075-1.377c.58-.386.856-.561 1.27-.503.413.058.63.131 1.254 1.086l1.69 2.587c.726 1.056.726 1.26.726 1.683h-.022zM68.2 48.254h-.225a.724.724 0 0 1-.232 0h-.072c-.834-.306-1.785-1.458-2.372-2.405l-3.627-5.48c-1.734-2.652-3.823-3.155-5.339-3.082a3.897 3.897 0 0 0 .588-2.288v-.146a8.497 8.497 0 0 0-1.487-3.6l-1.966-3.01c-1.183-1.799-2.517-3.846-5.194-3.992a6.74 6.74 0 0 0-4.309 1.399l-9.843 6.507a.772.772 0 0 0-.218 1.057l17.584 26.852a.727.727 0 0 0 .616.35.78.78 0 0 0 .435-.132l4.926-3.25a.773.773 0 0 0 .326-.48.82.82 0 0 0-.109-.584l-7.326-11.185 1.712-1.13c1.45-.976 2.133-.728 2.713 0 .312.409.573.802.849 1.225L59.633 51a6.644 6.644 0 0 0 2.176 2.085c.101.058.188.11.283.153l.217.117a.722.722 0 0 0 .798 0l5.419-3.578a.765.765 0 0 0-.356-1.407M79.096 11.914a.766.766 0 0 0-.655-.54c-.1-.01-.2 0-.296.03l-5.68 1.727a.725.725 0 0 0-.456.372.775.775 0 0 0-.058.582l6.876 22.83.095.32c.348 1.101.558 1.932.05 2.559a2.175 2.175 0 0 1-1.11.728 1.799 1.799 0 0 1-1.922-.35 5.897 5.897 0 0 1-.892-2.04L68.164 15.26a.731.731 0 0 0-.651-.552.723.723 0 0 0-.3.042l-5.635 1.712a.758.758 0 0 0-.537.658c-.01.1 0 .2.029.297L68.2 41.12a10.52 10.52 0 0 0 1.712 3.468 7.097 7.097 0 0 0 2.176 1.895 7.625 7.625 0 0 0 3.7.976 12.28 12.28 0 0 0 3.808-.583l.116-.036c4.352-1.275 6.014-3.549 6.645-5.232.87-2.266.442-4.124-.073-5.83l-7.188-23.864zM101.306 21.831c-.479.084-.964.13-1.45.139l-1.371.051-.218-6.558 1.589-.051c1.407-.051 1.944.08 2.176.874.107.404.16.82.159 1.239l.073 2.186c.065 1.902-.472 2.026-.943 2.135l-.015-.015zm1.857 12.403c.073 2.186-.515 2.324-1.117 2.434-.445.079-.897.118-1.349.116l-1.726.066-.29-8.613 1.777-.066c1.342-.044 2.118.066 2.401.802.148.47.207.965.174 1.457l.13 3.804zm5.963-8.562a4.06 4.06 0 0 0-1.4-1.064 4.436 4.436 0 0 0 1.777-3.002c.111-.807.15-1.621.116-2.434l-.094-2.871c-.065-1.88-.145-4.22-2.394-5.83-1.784-1.34-3.743-1.268-5.629-1.202L91.39 9.61a.722.722 0 0 0-.69.496.733.733 0 0 0-.035.299l1.088 32.113a.73.73 0 0 0 .769.729l10.105-.35a11.56 11.56 0 0 0 4.816-.867c1.357-.678 2.989-2.186 3.068-5.538V34.984l-.166-4.89c-.044-1.413-.087-3.016-1.226-4.422" fill="#fff"/>
        </g>
    </g>
    <defs>
        <clipPath id="a">
            <path fill="#fff" d="M0 0h199.111v175H0z"/>
        </clipPath>
        <clipPath id="b">
            <path fill="#fff" d="M0 0h199.305v139.136H0z"/>
        </clipPath>
    </defs>
</svg>
